<svg width="116" height="27" viewBox="0 0 116 27" fill="none" xmlns="http://www.w3.org/2000/svg">
<path d="M10.5693 26.416C13.6413 26.416 15.9773 25.2 17.8973 23.024L15.9132 20.688C14.5053 22.224 12.8733 23.184 10.6973 23.184C6.53725 23.184 3.91325 19.76 3.91325 14.16C3.91325 8.656 6.69725 5.232 10.7933 5.232C12.7133 5.232 14.1533 6.096 15.4013 7.344L17.4173 4.976C15.9773 3.408 13.6733 2 10.7293 2C4.74525 2 0.10525 6.576 0.10525 14.288C0.10525 21.968 4.64925 26.416 10.5693 26.416ZM22.0728 26H25.7848V15.28H35.8647V26H39.5768V2.448H35.8647V12.048H25.7848V2.448H22.0728V26ZM44.9283 0.943998V4.912H48.7043V0.943998H44.9283ZM48.6083 26V8.4H44.9603V26H48.6083ZM54.0103 26H61.8823C67.1303 26 70.9062 23.792 70.9062 19.088C70.9062 15.888 68.9543 14.096 66.2663 13.488V13.328C68.4103 12.592 69.6263 10.512 69.6263 8.24C69.6263 3.984 66.1383 2.448 61.3063 2.448H54.0103V26ZM57.7223 12.272V5.328H60.9863C64.3143 5.328 65.9783 6.256 65.9783 8.72C65.9783 10.928 64.4743 12.272 60.8903 12.272H57.7223ZM57.7223 23.088V15.088H61.4663C65.2103 15.088 67.2583 16.208 67.2583 18.896C67.2583 21.84 65.2103 23.088 61.4663 23.088H57.7223ZM75.354 26H83.226C88.474 26 92.25 23.792 92.25 19.088C92.25 15.888 90.298 14.096 87.61 13.488V13.328C89.754 12.592 90.97 10.512 90.97 8.24C90.97 3.984 87.482 2.448 82.65 2.448H75.354V26ZM79.066 12.272V5.328H82.33C85.658 5.328 87.322 6.256 87.322 8.72C87.322 10.928 85.818 12.272 82.234 12.272H79.066ZM79.066 23.088V15.088H82.81C86.554 15.088 88.602 16.208 88.602 18.896C88.602 21.84 86.554 23.088 82.81 23.088H79.066ZM105.658 26.416C111.706 26.416 115.93 21.712 115.93 14.128C115.93 6.544 111.706 2 105.658 2C99.6098 2 95.4178 6.544 95.4178 14.128C95.4178 21.712 99.6098 26.416 105.658 26.416ZM105.658 23.184C101.754 23.184 99.2258 19.664 99.2258 14.128C99.2258 8.592 101.754 5.232 105.658 5.232C109.562 5.232 112.122 8.592 112.122 14.128C112.122 19.664 109.562 23.184 105.658 23.184Z" fill="#2C5AF1"/>
</svg>
